<svg xmlns="http://www.w3.org/2000/svg" width="200" height="200" viewBox="0 0 200 200">
  <!-- Cup body -->
  <ellipse cx="95" cy="130" rx="55" ry="50" fill="#F5E6C8" stroke="#D4841A" stroke-width="3"/>
  <!-- Cup rim -->
  <ellipse cx="95" cy="85" rx="55" ry="12" fill="#D4841A"/>
  <ellipse cx="95" cy="85" rx="48" ry="8" fill="#F5E6C8"/>
  <!-- Handle -->
  <path d="M40 100 Q15 100 15 125 Q15 150 40 150" fill="none" stroke="#F5E6C8" stroke-width="8" stroke-linecap="round"/>
  <path d="M40 100 Q15 100 15 125 Q15 150 40 150" fill="none" stroke="#D4841A" stroke-width="3" stroke-linecap="round"/>
  <!-- Steam -->
  <path d="M80 75 Q75 55 85 40 Q90 30 82 15" fill="none" stroke="#D4841A" stroke-width="3" stroke-linecap="round"/>
  <path d="M95 70 Q90 50 100 35 Q105 22 95 8" fill="none" stroke="#D4841A" stroke-width="4" stroke-linecap="round"/>
  <path d="M110 75 Q105 58 112 45 Q118 35 110 22" fill="none" stroke="#D4841A" stroke-width="3" stroke-linecap="round"/>
  <!-- Bottom decoration -->
  <path d="M55 165 Q75 175 95 165 Q115 155 135 165" fill="none" stroke="#D4841A" stroke-width="2.5"/>
  <!-- Text БАЯН -->
  <text x="100" y="195" text-anchor="middle" font-family="Georgia, 'Times New Roman', serif" font-size="28" font-weight="bold" fill="#D4841A" letter-spacing="4">БАЯН</text>
</svg>
